<?xml version="1.0" standalone="no"?>
<!DOCTYPE svg PUBLIC "-//W3C//DTD SVG 20010904//EN"
 "http://www.w3.org/TR/2001/REC-SVG-20010904/DTD/svg10.dtd">
<svg version="1.0" xmlns="http://www.w3.org/2000/svg"
 width="612.000000pt" height="196.000000pt" viewBox="0 0 612.000000 196.000000"
 preserveAspectRatio="xMidYMid meet">

<g transform="translate(0.000000,196.000000) scale(0.100000,-0.100000)"
fill="#000000" stroke="none">
<path d="M487 1532 c-97 -98 -177 -185 -177 -193 1 -10 3 -9 11 4 9 15 28 17
169 17 l160 0 1 -62 2 -63 8 70 c5 39 9 131 8 205 0 166 6 187 58 193 33 3 32
4 -12 5 l-51 2 -177 -178z"/>
<path d="M1018 1703 c7 -3 16 -2 19 1 4 3 -2 6 -13 5 -11 0 -14 -3 -6 -6z"/>
<path d="M1110 1703 c35 -2 70 -9 77 -15 10 -8 13 -51 14 -162 0 -83 4 -169 8
-191 8 -39 9 -39 10 -7 l1 32 149 0 c109 0 151 -3 159 -13 6 -7 13 -40 15 -72
3 -55 3 -53 5 20 l2 80 -172 167 -173 167 -80 -1 c-78 -2 -79 -2 -15 -5z"/>
<path d="M5305 1625 l-230 -83 -5 -82 c-3 -45 -2 -84 2 -86 4 -3 72 16 151 41
79 25 147 45 150 45 4 0 7 -229 7 -510 l0 -510 100 0 100 0 0 635 0 635 -22
-1 c-13 0 -126 -38 -253 -84z"/>
<path d="M2103 1391 c-54 -13 -83 -28 -121 -59 -27 -23 -52 -42 -55 -42 -3 0
-7 21 -9 48 l-3 47 -92 3 -93 3 -2 -636 c-1 -349 -2 -643 -2 -652 -1 -16 10
-18 103 -18 l103 0 -1 223 c-1 122 1 222 4 222 3 0 27 -16 52 -35 25 -19 64
-40 87 -46 62 -17 164 -15 223 5 90 30 126 65 178 168 56 114 70 193 61 361
-5 108 -9 126 -43 204 -49 111 -110 176 -186 197 -87 24 -128 26 -204 7z m88
-172 c49 -17 88 -56 118 -119 24 -51 26 -64 25 -185 -1 -112 -4 -137 -24 -183
-43 -100 -128 -146 -223 -123 -67 17 -114 46 -138 85 -17 28 -19 52 -19 227
l0 195 36 42 c52 61 147 87 225 61z"/>
<path d="M3014 1396 c-219 -49 -354 -231 -354 -477 0 -168 43 -285 139 -379
86 -84 144 -105 286 -104 173 1 277 43 351 139 l27 36 -49 44 c-27 24 -52 44
-56 45 -4 0 -28 -15 -52 -34 -54 -41 -164 -71 -236 -64 -92 9 -157 76 -193
198 l-15 50 311 2 310 3 -2 78 c-5 180 -50 297 -145 385 -80 73 -207 103 -322
78z m174 -186 c37 -28 77 -105 87 -167 l7 -43 -206 0 c-233 0 -219 -6 -185 86
24 65 83 128 131 143 54 17 130 8 166 -19z"/>
<path d="M3980 1397 c-66 -19 -114 -44 -145 -77 -37 -39 -45 -38 -45 4 0 64
-3 66 -106 66 l-94 0 2 -472 3 -473 100 0 100 0 3 340 2 339 38 39 c65 66 197
87 261 40 54 -41 56 -51 61 -418 l5 -340 98 -3 97 -3 0 323 c0 406 -16 504
-92 575 -59 55 -200 84 -288 60z"/>
<path d="M4489 1066 c-2 -2 -3 -41 -1 -85 l4 -81 213 0 c117 0 219 -2 227 -5
10 -4 13 14 13 85 l0 90 -226 0 c-124 0 -228 -2 -230 -4z"/>
<path d="M1539 535 l-4 -60 -168 -5 -168 -5 -2 -173 c-1 -94 1 -171 5 -170 4
2 86 81 181 176 l174 173 -4 52 c-7 76 -10 79 -14 12z"/>
<path d="M1212 500 c0 -14 2 -19 5 -12 2 6 2 18 0 25 -3 6 -5 1 -5 -13z"/>
<path d="M310 478 c0 -21 336 -352 362 -356 17 -3 19 0 13 15 -4 10 -10 88
-12 173 l-3 155 -158 6 c-86 4 -167 10 -179 14 -17 5 -23 3 -23 -7z"/>
</g>
</svg>
