<?xml version="1.0" standalone="no"?>
<!DOCTYPE svg PUBLIC "-//W3C//DTD SVG 20010904//EN"
 "http://www.w3.org/TR/2001/REC-SVG-20010904/DTD/svg10.dtd">
<svg version="1.0" xmlns="http://www.w3.org/2000/svg"
 width="500.000000pt" height="500.000000pt" viewBox="0 0 500.000000 500.000000"
 preserveAspectRatio="xMidYMid meet">

<g transform="translate(0.000000,500.000000) scale(0.100000,-0.100000)"
fill="#000000" stroke="none">
<path d="M2263 3538 c-28 -47 -43 -85 -43 -106 l0 -34 -40 35 c-21 20 -59 48
-82 63 -24 14 -55 37 -69 51 l-26 24 -12 -60 c-10 -53 -10 -66 5 -96 9 -20 25
-40 36 -46 10 -6 35 -35 54 -65 19 -30 47 -69 63 -87 15 -17 40 -54 56 -82
l28 -50 -56 60 c-31 33 -56 63 -57 68 0 14 -20 7 -20 -8 0 -9 -16 -47 -35 -85
-27 -54 -35 -82 -35 -124 0 -104 58 -232 143 -314 l35 -34 12 89 c6 48 18 116
26 151 17 75 18 121 3 159 -5 15 -7 24 -3 20 4 -4 18 28 32 70 23 75 28 82
113 163 114 109 135 157 109 252 l-11 37 -47 -29 c-64 -40 -120 -93 -133 -127
-6 -15 -13 -23 -16 -16 -2 7 8 34 23 61 l27 48 -19 42 -19 42 -42 -72z"/>
<path d="M2624 3541 c-28 -31 -70 -83 -94 -116 -23 -33 -66 -85 -95 -115 -117
-123 -117 -120 37 -357 43 -67 87 -142 97 -165 l18 -43 8 35 c4 19 25 88 46
152 53 158 66 247 51 342 -10 67 -10 77 9 112 22 43 20 80 -10 164 l-16 47
-51 -56z"/>
<path d="M2913 3565 c-71 -32 -143 -106 -170 -177 -20 -50 -21 -63 -12 -120 6
-35 8 -85 4 -113 l-6 -50 18 26 c49 72 107 141 147 175 63 52 75 83 78 192 2
50 1 92 -2 91 -3 0 -29 -11 -57 -24z"/>
<path d="M3320 3393 c-145 -109 -150 -116 -150 -238 0 -79 -4 -98 -29 -152
-41 -86 -65 -116 -131 -162 -97 -68 -101 -66 118 -65 109 1 205 2 214 3 42 3
152 131 131 152 -5 5 -53 12 -106 16 -53 3 -97 9 -97 12 0 3 30 22 67 41 77
40 104 73 132 164 22 73 20 74 -68 47 -54 -17 -62 -17 -57 -4 18 46 27 105 24
159 l-3 60 -45 -33z"/>
<path d="M3060 3393 c-62 -36 -185 -137 -209 -171 -11 -16 -23 -41 -27 -57 -6
-25 -5 -27 12 -21 10 4 33 10 49 12 23 4 15 -3 -30 -26 -145 -75 -179 -150
-271 -588 -19 -90 -34 -166 -34 -168 0 -2 -4 -4 -9 -4 -5 0 -12 30 -16 68 -9
93 -41 207 -76 271 -16 30 -29 59 -29 65 0 6 28 -16 61 -49 l61 -60 -5 65 c-6
84 -49 180 -126 279 -32 42 -63 85 -69 96 -10 19 -12 17 -27 -18 -33 -78 -38
-145 -20 -238 l16 -86 -30 -31 c-50 -49 -38 -96 55 -215 61 -78 117 -180 112
-204 -2 -8 -26 18 -56 61 -58 84 -226 278 -321 371 -61 60 -75 85 -45 85 18 0
17 4 -10 105 -9 32 -16 71 -16 85 0 18 -19 44 -65 90 l-65 64 -1 -74 c-1 -62
-2 -70 -10 -45 -5 17 -9 50 -7 76 1 25 -1 50 -5 56 -10 15 -118 76 -124 69 -3
-3 -5 -39 -5 -81 1 -58 7 -89 25 -129 l24 -53 -56 23 c-41 17 -76 24 -129 24
l-72 0 14 -23 c9 -12 20 -47 27 -77 17 -81 43 -134 90 -184 l41 -45 -28 -12
c-16 -7 -67 -29 -114 -50 l-85 -38 56 -55 c48 -46 66 -56 114 -66 65 -14 88
-11 200 21 93 26 228 31 290 10 113 -39 236 -167 320 -336 74 -147 91 -249 59
-355 -45 -151 -118 -200 -407 -277 -284 -74 -282 -73 -142 -67 105 6 300 -8
314 -21 2 -3 -2 -12 -10 -21 -12 -15 -11 -16 11 -9 57 17 146 59 207 96 36 21
67 39 70 39 9 0 -4 -92 -21 -140 l-15 -45 55 60 c30 33 71 92 91 132 20 40 39
73 42 73 3 0 23 -30 44 -66 33 -56 165 -210 173 -202 1 2 -8 35 -20 73 -13 39
-26 87 -30 108 l-7 38 29 -15 c74 -38 296 -105 308 -93 2 2 -37 20 -87 41
-203 86 -306 195 -375 396 -30 87 -26 272 8 368 58 164 156 250 284 252 41 0
146 -31 169 -50 7 -6 35 -13 62 -17 85 -10 181 55 232 156 l20 38 -53 6 c-30
3 -85 19 -122 35 -217 95 -408 40 -538 -157 -53 -79 -99 -196 -117 -296 -12
-62 -14 -66 -38 -63 -26 3 -26 4 -24 78 4 173 69 288 282 500 169 167 218 231
250 328 26 76 26 99 1 197 -11 43 -20 86 -20 97 0 24 -7 23 -60 -9z"/>
<path d="M1946 3400 c-28 -77 -36 -109 -36 -152 0 -59 18 -102 60 -146 l33
-34 18 29 c32 47 53 126 45 168 -9 46 -111 161 -120 135z"/>
<path d="M1500 2707 c3 -3 23 -10 44 -16 22 -5 35 -6 30 -2 -9 9 -83 27 -74
18z"/>
<path d="M2995 2480 c-29 -33 7 -78 40 -50 21 17 19 47 -4 59 -14 8 -23 6 -36
-9z"/>
<path d="M1847 2479 c-16 -9 -15 -13 10 -49 16 -22 35 -42 43 -45 18 -7 104
80 95 95 -8 13 -125 12 -148 -1z"/>
<path d="M2028 2466 c-9 -20 -8 -30 6 -51 17 -26 18 -26 37 -9 26 23 24 48 -6
68 -24 16 -26 16 -37 -8z"/>
<path d="M1716 2401 c-21 -23 -20 -44 3 -65 18 -16 20 -16 35 6 21 30 20 51
-3 65 -15 10 -22 9 -35 -6z"/>
<path d="M3176 2389 c-17 -25 -12 -45 17 -61 16 -8 23 -7 34 8 19 26 16 52 -6
64 -26 14 -28 13 -45 -11z"/>
</g>
</svg>
